<svg xmlns="http://www.w3.org/2000/svg" width="682.667" height="682.667" version="1.0" viewBox="0 0 512 512"><path d="M168.3 53.5c-8 2.2-12 4.1-19 9.1-12.9 9.2-23.7 26.3-29 45.9-2.4 9.1-2.6 11.6-2.6 28 0 16.2.2 19 2.5 27.6 6.7 24.8 19.9 42.7 38.1 51.4 17.5 8.5 36 6.5 52.2-5.7 20-15.2 31.5-41.8 31.5-73.3 0-23.2-5.7-42.4-17.6-59.2-13.9-19.5-36.4-29.1-56.1-23.8zM321.3 53.4c-22.2 5.4-40.8 26.9-48.3 55.6-2.8 10.8-3.8 33.5-2 44.8 6.8 42.6 36.6 71.5 68.2 66.3 24.6-4 44.2-24.9 52.6-56 2.3-8.6 2.5-11.4 2.5-27.6 0-16.3-.2-18.9-2.6-27.9-10.6-39.4-40.1-62.5-70.4-55.2zM56 181.1c-13.2 2.5-27.3 13.8-33.7 26.9-5.4 11.1-6.8 17.9-6.7 33 .1 11.6.5 14.7 2.8 22.3 12.5 41.6 48.3 63.4 79.6 48.5 12.7-6.1 23.2-20 27.7-36.8 2.6-9.5 2.3-28.8-.6-39.5-9.8-36.5-39.7-60.1-69.1-54.4zM436.4 181.5c-22.3 4.8-42.1 26.4-49.5 54-2.9 10.7-3.2 30-.6 39.5 7.4 27.8 29.4 44.5 53.8 41 19.8-2.8 37-16.5 47.5-37.5 6.6-13.5 8.7-22.4 8.8-38 0-9.6-.4-14.7-1.7-19.4-4.6-16.4-14.5-29.5-27-35.6-11.2-5.4-19.7-6.5-31.3-4zM235.2 234.5c-49.7 9-92.3 50.8-111.6 109.7-6.7 20.1-9 33.6-8.3 48.3.9 20 6.7 33.6 20.7 47.6 6.8 6.8 10.2 9.4 17 12.7 8.9 4.4 19.3 7.2 27.2 7.2 6 0 17.7-2.3 25.3-5 19.7-7 50.4-9.8 72.1-6.6 11.2 1.6 17.1 3 33.9 8 17.9 5.3 31.6 4.3 47.5-3.6 6.8-3.3 10.3-5.9 17.1-12.8 7.3-7.2 9.4-10.1 13.2-18 6.3-13.2 8.1-22.1 7.4-37.4-1.1-24.6-12.2-57.8-27.6-82.6-22.7-36.5-56.5-61.2-92.5-67.5-10.7-1.8-31.2-1.8-41.4 0z"/></svg>